<svg width="626" height="582" viewBox="0 0 626 582" fill="none" xmlns="http://www.w3.org/2000/svg">
	<path d="M353 235H220V55L335 118L353 235Z" fill="#2D1615"/>
	<path d="M288.74 185.695L215.052 189.008C215.052 189.008 221.202 227.116 181.336 230.74C141.471 234.365 105.229 223.492 90.7327 250.673C76.2361 277.854 82.4844 374.639 82.4844 374.639C82.4844 374.639 109.666 472.491 131.41 486.988C153.155 501.485 343.423 481.552 343.423 481.552L423.052 381.008L420.355 303.469C418.946 262.977 381.978 232.577 342.161 240.07C341.379 240.217 340.592 240.376 339.799 240.546C339.799 240.546 331.052 234.008 307.052 222.008C292.375 214.67 288.74 185.695 288.74 185.695Z" fill="#1D453E"/>
	<path d="M253.5 208C291.332 208 322 167.93 322 118.5C322 69.0705 291.332 29 253.5 29C215.669 29 185 69.0705 185 118.5C185 167.93 215.669 208 253.5 208Z" fill="#FFB8B8"/>
	<path d="M128.786 228.928C128.786 228.928 146.3 260.706 139.052 306.008C131.804 351.31 162.216 447.122 162.216 447.122L183.961 441.686C183.961 441.686 169.464 347.458 173.088 325.713C176.712 303.968 177.712 239.801 159.592 228.928C141.471 218.056 128.786 228.928 128.786 228.928Z" fill="#2F2E41"/>
	<path d="M338.525 245.591L346.141 446.216L360.638 455.277C360.638 455.277 381.477 235.109 370.604 235.109H348.482C347.173 235.109 345.876 235.367 344.666 235.868C343.457 236.369 342.358 237.104 341.432 238.03C340.506 238.956 339.772 240.055 339.271 241.264C338.769 242.474 338.512 243.771 338.512 245.08C338.512 245.25 338.516 245.42 338.525 245.591Z" fill="#2F2E41"/>
	<path d="M474.152 562.446V568.516C474.155 570.182 473.847 571.834 473.242 573.386C472.973 574.078 472.649 574.747 472.272 575.386C471.08 577.387 469.389 579.043 467.364 580.193C465.339 581.343 463.05 581.947 460.722 581.946H14.1718C11.8432 581.947 9.55431 581.343 7.52952 580.193C5.50474 579.043 3.81355 577.387 2.62176 575.386C2.24475 574.747 1.92035 574.078 1.65176 573.386C1.04703 571.834 0.738373 570.182 0.741757 568.516V562.446C0.741282 560.683 1.0881 558.937 1.7624 557.308C2.43671 555.679 3.42529 554.198 4.67172 552.951C5.91814 551.704 7.398 550.715 9.02679 550.04C10.6556 549.364 12.4014 549.017 14.1646 549.016H39.9118V546.186C39.9116 546.113 39.926 546.04 39.954 545.972C39.9819 545.904 40.023 545.843 40.0748 545.791C40.1267 545.739 40.1882 545.697 40.256 545.669C40.3238 545.641 40.3965 545.626 40.4699 545.626H53.9017C54.05 545.626 54.1923 545.685 54.2973 545.789C54.4024 545.894 54.4615 546.036 54.4617 546.184V549.016H62.8517V546.186C62.8516 546.113 62.8659 546.04 62.8939 545.972C62.9219 545.904 62.963 545.843 63.0148 545.791C63.0667 545.739 63.1282 545.697 63.196 545.669C63.2638 545.641 63.3365 545.626 63.4099 545.626H76.8417C76.99 545.626 77.1323 545.685 77.2373 545.789C77.3423 545.894 77.4015 546.036 77.4017 546.184V549.016H85.8017V546.186C85.8016 546.113 85.816 546.04 85.8439 545.972C85.8719 545.904 85.913 545.843 85.9648 545.791C86.0167 545.739 86.0782 545.697 86.146 545.669C86.2138 545.641 86.2865 545.626 86.3599 545.626H99.7917C99.94 545.626 100.082 545.685 100.187 545.789C100.292 545.894 100.351 546.036 100.352 546.184V549.016H108.742V546.186C108.742 546.113 108.756 546.04 108.784 545.972C108.812 545.904 108.853 545.843 108.905 545.791C108.957 545.739 109.018 545.697 109.086 545.669C109.154 545.641 109.226 545.626 109.3 545.626H122.732C122.88 545.626 123.022 545.685 123.127 545.789C123.232 545.894 123.291 546.036 123.292 546.184V549.016H131.682V546.186C131.682 546.113 131.696 546.04 131.724 545.972C131.752 545.904 131.793 545.843 131.845 545.791C131.897 545.739 131.958 545.697 132.026 545.669C132.094 545.641 132.166 545.626 132.24 545.626H145.672C145.82 545.626 145.962 545.685 146.067 545.789C146.172 545.894 146.231 546.036 146.232 546.184V549.016H154.632V546.186C154.632 546.113 154.646 546.04 154.674 545.972C154.702 545.904 154.743 545.843 154.795 545.791C154.847 545.739 154.908 545.697 154.976 545.669C155.044 545.641 155.116 545.626 155.19 545.626H168.622C168.77 545.626 168.912 545.685 169.017 545.789C169.122 545.894 169.181 546.036 169.182 546.184V549.016H177.572V546.186C177.572 546.113 177.586 546.04 177.614 545.972C177.642 545.904 177.683 545.843 177.735 545.791C177.787 545.739 177.848 545.697 177.916 545.669C177.984 545.641 178.056 545.626 178.13 545.626H283.332C283.405 545.626 283.478 545.64 283.546 545.668C283.614 545.696 283.675 545.738 283.727 545.789C283.779 545.841 283.821 545.903 283.849 545.971C283.877 546.038 283.892 546.111 283.892 546.184V549.016H292.292V546.186C292.292 546.113 292.306 546.04 292.334 545.972C292.362 545.904 292.403 545.843 292.455 545.791C292.507 545.739 292.568 545.697 292.636 545.669C292.704 545.641 292.776 545.626 292.85 545.626H306.282C306.43 545.628 306.571 545.687 306.676 545.792C306.781 545.897 306.84 546.038 306.842 546.186V549.016H315.232V546.186C315.232 546.113 315.246 546.04 315.274 545.972C315.302 545.904 315.343 545.843 315.395 545.791C315.447 545.739 315.508 545.697 315.576 545.669C315.644 545.641 315.716 545.626 315.79 545.626H329.222C329.295 545.626 329.368 545.641 329.436 545.669C329.504 545.697 329.565 545.738 329.617 545.789C329.669 545.841 329.711 545.903 329.739 545.971C329.767 546.038 329.782 546.111 329.782 546.184V549.016H338.172V546.186C338.172 546.113 338.186 546.04 338.214 545.972C338.242 545.904 338.283 545.843 338.335 545.791C338.387 545.739 338.448 545.697 338.516 545.669C338.584 545.641 338.656 545.626 338.73 545.626H352.162C352.235 545.626 352.308 545.641 352.376 545.669C352.444 545.697 352.505 545.738 352.557 545.789C352.609 545.841 352.651 545.903 352.679 545.971C352.707 546.038 352.722 546.111 352.722 546.185V549.016H361.122V546.186C361.122 546.113 361.136 546.04 361.164 545.972C361.192 545.904 361.233 545.843 361.285 545.791C361.337 545.739 361.398 545.697 361.466 545.669C361.534 545.641 361.606 545.626 361.68 545.626H375.112C375.259 545.628 375.399 545.688 375.502 545.793C375.605 545.898 375.662 546.039 375.662 546.186V549.016H384.062V546.186C384.062 546.113 384.076 546.04 384.104 545.972C384.132 545.904 384.173 545.843 384.225 545.791C384.277 545.739 384.338 545.697 384.406 545.669C384.474 545.641 384.546 545.626 384.62 545.626H398.052C398.125 545.626 398.198 545.641 398.266 545.669C398.334 545.697 398.395 545.738 398.447 545.789C398.499 545.841 398.541 545.903 398.569 545.971C398.597 546.038 398.612 546.111 398.612 546.185V549.016H407.002V546.186C407.002 546.113 407.016 546.04 407.044 545.972C407.072 545.904 407.113 545.843 407.165 545.791C407.217 545.739 407.278 545.697 407.346 545.669C407.414 545.641 407.486 545.626 407.56 545.626H420.992C421.065 545.626 421.138 545.641 421.206 545.669C421.274 545.697 421.335 545.738 421.387 545.789C421.439 545.841 421.481 545.903 421.509 545.971C421.537 546.038 421.552 546.111 421.552 546.185V549.016H460.722C464.283 549.015 467.698 550.429 470.217 552.946C472.735 555.464 474.151 558.878 474.152 562.439L474.152 562.446Z" fill="#3F3D56"/>
	<path d="M200.102 31.8098C210.62 14.1418 229.938 2.01952 250.422 0.232827C270.906 -1.55384 292.031 7.04099 305.449 22.6212C313.445 31.9054 318.687 43.2758 326.481 52.7301C343.254 73.0756 371.854 84.9716 379.181 110.301C382.378 121.354 380.785 133.154 379.167 144.546C377.78 154.31 376.394 164.074 375.007 173.838C373.928 181.437 372.893 189.447 375.742 196.574C379.085 204.935 387.085 210.411 392.257 217.781C401.058 230.323 400.415 248.685 390.757 260.58C386.569 265.738 381.017 269.628 376.626 274.615C372.236 279.603 368.979 286.421 370.818 292.806C374.34 305.037 393.522 307.971 395.626 320.524C396.702 326.942 392.269 333.352 386.46 336.286C380.652 339.221 373.815 339.306 367.354 338.521C342.801 335.537 320.067 320.195 308.113 298.542C296.158 276.888 295.288 249.476 305.844 227.108C314.515 208.736 330.63 192.502 330.454 172.188C330.358 161.122 325.282 150.785 320.319 140.893C310.159 120.648 300 100.402 289.841 80.1562C284.399 69.3112 278.084 57.6245 266.88 52.9656C258.221 49.3649 248.397 50.7614 239.135 52.2342C229.874 53.7069 220.064 55.1404 211.379 51.6023C202.695 48.0643 196.133 37.5525 200.271 29.1372" fill="#3D1D1B"/>
	<path d="M438.194 306.812H29.1507C27.6722 306.812 26.2082 307.103 24.8422 307.669C23.4763 308.235 22.2351 309.064 21.1897 310.11C20.1442 311.155 19.3149 312.396 18.7491 313.762C18.1833 315.128 17.8921 316.592 17.8921 318.071V545.982C17.8921 548.968 19.0782 551.832 21.1896 553.943C23.301 556.055 26.1647 557.241 29.1507 557.241H438.194C441.18 557.241 444.044 556.055 446.155 553.943C448.267 551.832 449.453 548.968 449.453 545.982V318.071C449.453 315.085 448.267 312.221 446.155 310.11C444.044 307.998 441.18 306.812 438.194 306.812Z" fill="#3F3D56"/>
	<path d="M234 411.381C247.807 411.381 259 400.189 259 386.381C259 372.574 247.807 361.381 234 361.381C220.193 361.381 209 372.574 209 386.381C209 400.189 220.193 411.381 234 411.381Z" fill="#6C63FF"/>
	<path d="M234.994 12.9981C218.311 7.50663 199.597 16.3223 188.302 29.7725C177.008 43.2228 171.529 60.4785 166.31 77.2484C163.321 86.8542 160.331 96.46 157.342 106.066C154.529 115.102 151.717 124.138 148.905 133.175C145.597 143.803 142.262 155.095 144.977 165.891C146.94 173.695 151.99 180.782 152.098 188.829C152.212 197.234 146.948 204.614 142.335 211.641C137.722 218.669 133.391 227.018 135.589 235.132C138.932 247.474 156.091 254.258 155.15 267.01C154.837 271.265 152.376 275.202 152.42 279.469C152.477 284.898 156.728 289.589 161.708 291.752C166.688 293.915 172.289 294.033 177.718 293.937C194.369 293.644 210.991 291.667 227.246 288.045C233.5 286.651 239.86 284.942 245.066 281.206C250.271 277.471 254.155 271.282 253.477 264.911C252.422 254.982 241.747 249.349 236.359 240.942C231.068 232.685 231.191 222.223 228.909 212.685C225.773 199.576 218.029 188.132 212.215 175.972C190.358 130.256 198.009 71.9852 230.927 33.4612C233.838 30.0551 237.018 26.6285 238.232 22.3159C239.446 18.0033 237.881 12.5087 233.662 11" fill="#3D1D1B"/>
	<path d="M439.422 281.203L565.628 154H625.211V152H564.793L564.5 152.297L438 279.797L439.422 281.203Z" fill="#3F3D56"/>
</svg>
