<?xml version="1.0" encoding="UTF-8" standalone="no"?>
<svg
   viewBox="0 0 1080 429.50201"
   width="1080"
   height="429.50201"
   preserveAspectRatio="xMidYMid"
   version="1.1"
   sodipodi:docname="woman_working.svg"
   inkscape:version="1.3 (0e150ed6c4, 2023-07-21)"
   xmlns:inkscape="http://www.inkscape.org/namespaces/inkscape"
   xmlns:sodipodi="http://sodipodi.sourceforge.net/DTD/sodipodi-0.dtd"
   xmlns:xlink="http://www.w3.org/1999/xlink"
   xmlns="http://www.w3.org/2000/svg"
   xmlns:svg="http://www.w3.org/2000/svg">
  <sodipodi:namedview
     id="namedview34"
     pagecolor="#ffffff"
     bordercolor="#000000"
     borderopacity="0.25"
     inkscape:showpageshadow="2"
     inkscape:pageopacity="0.0"
     inkscape:pagecheckerboard="0"
     inkscape:deskcolor="#d1d1d1"
     inkscape:zoom="1.1955882"
     inkscape:cx="575.03077"
     inkscape:cy="268.9053"
     inkscape:window-width="1920"
     inkscape:window-height="1009"
     inkscape:window-x="-8"
     inkscape:window-y="-8"
     inkscape:window-maximized="1"
     inkscape:current-layer="svg34" />
  <defs
     id="defs1">
    <linearGradient
       id="linearGradient15"
       inkscape:collect="always">
      <stop
         style="stop-color:#280b0b;stop-opacity:0.55601699;"
         offset="0"
         id="stop15" />
      <stop
         style="stop-color:#280b0b;stop-opacity:0;"
         offset="1"
         id="stop16" />
    </linearGradient>
    <clipPath
       id="__lottie_element_18">
      <rect
         width="899"
         height="680"
         x="0"
         y="0"
         id="rect1" />
    </clipPath>
    <linearGradient
       inkscape:collect="always"
       xlink:href="#linearGradient15"
       id="linearGradient16"
       x1="539.92268"
       y1="69.826446"
       x2="991.48812"
       y2="69.826446"
       gradientUnits="userSpaceOnUse"
       gradientTransform="translate(-184.00985,-4.1820419)" />
  </defs>
  <path
     style="fill:#c87137;fill-opacity:0.556017;stroke:#744420;stroke-width:6.33978;stroke-linecap:round;stroke-linejoin:round"
     d="M -0.55778312,268.76651 H 1081.9997"
     id="path14" />
  <g
     clip-path="url(#__lottie_element_18)"
     id="g34"
     transform="translate(0,-249.86238)">
    <g
       transform="rotate(11.459941,-1164.4099,298.06668)"
       opacity="1"
       style="display:block"
       id="g12">
      <g
         opacity="1"
         transform="translate(47.077,73.744003)"
         id="g1">
        <path
           fill="#593313"
           fill-opacity="1"
           d="M 33.334,-34.766998 C 38.500999,-11.258 -7.1999998,47.245998 31.08,51.666 7.1479998,71.358002 3.1719999,59.509998 -12.211,43.417999 -27.594999,27.326 -35.028,4.6269999 -35.009998,-17.636 c 0.011,-12.552 -3.491001,-29.977998 3.912998,-40.113001 C -23.542999,-68.087997 -3.7390001,-71.358002 8.9020004,-65.862 22.177,-60.091999 30.4,-48.112 33.334,-34.766998 Z"
           id="path1" />
      </g>
      <g
         opacity="1"
         transform="translate(41.567001,52.918999)"
         id="g2">
        <path
           fill="#f5bd95"
           fill-opacity="1"
           d="m -23.52,-32.312 c 8.464,-3.375 17.803,-4.57 26.855,-4.266999 7.402,0.247998 15.787999,1.505997 22.431001,5.370999 C 29.587,-22.275999 29.636,-12.194 27.545,-2.8269999 26.299,2.7520001 19.739,23.632999 9.9379997,29.351 -2.9679999,36.882 -21.958,11.872 -24.830999,3.559 -28.541,-7.1799998 -29.636,-14.829 -26.268999,-25.507999 c 0.733,-2.325001 1.681999,-4.594 2.748999,-6.804001 z"
           id="path2" />
      </g>
      <g
         opacity="1"
         transform="translate(19.451,87.334)"
         id="g3">
        <path
           fill="#f5bd95"
           fill-opacity="1"
           d="m 19.201,-10.408 c 0,0 -22.4830001,33.912999 -22.4830001,33.912999 0,0 -15.9189999,-19.1779989 -15.9189999,-19.1779989 0,0 21.13,-27.8319991 21.13,-27.8319991 z"
           id="path3" />
      </g>
      <g
         opacity="1"
         transform="translate(37.404999,42.070999)"
         id="g4">
        <path
           fill="#593313"
           fill-opacity="1"
           d="M 19.766001,-32.500999 C 27.516001,-28.422001 34.736,-22.414 33.09,-14.202 31.847,-8.0019999 4.0349998,34.452 -31.254999,41.820999 -29.628,38.323002 -26.429001,25.92 -29.628,15.821 -32.827,5.7220001 -34.736,-5.2509999 -31.16,-15.44 -24.482,-34.464001 2.0550001,-41.820999 19.766001,-32.500999 Z"
           id="path4" />
      </g>
      <g
         opacity="1"
         transform="translate(64.846001,36.530998)"
         id="g5">
        <path
           fill="#593313"
           fill-opacity="1"
           d="m 2.6919999,-10.504 c 0,0 -3.37899988,20.666 -10.132,27.285 C -3.6789999,14.203 4.289,4.474 5.8639998,-6.1539998 7.4400001,-16.781 2.6919999,-10.504 2.6919999,-10.504 Z"
           id="path5" />
      </g>
      <g
         opacity="1"
         transform="translate(53.532001,73.414001)"
         id="g6">
        <path
           fill="#ffffff"
           fill-opacity="1"
           d="m -3.1860001,-3.823 c 0,0 2.1240001,1.593 6.69,3.29199998 C 1.062,2.5480001 -3.5039999,3.823 -3.1860001,-3.823 Z"
           id="path6" />
      </g>
      <g
         opacity="1"
         transform="translate(53.245998,15.436)"
         id="g8">
        <path
           fill="#593313"
           fill-opacity="1"
           d="m 12.326,5.7709999 c 0,0 -3.1299999,-10.368 -24.652,-11.5419998"
           id="path7" />
        <path
           stroke-linecap="butt"
           stroke-linejoin="miter"
           fill-opacity="0"
           stroke-miterlimit="10"
           stroke="#94784e"
           stroke-opacity="1"
           stroke-width="1"
           d="m 12.326,5.7709999 c 0,0 -3.1299999,-10.368 -24.652,-11.5419998"
           id="path8" />
      </g>
      <g
         opacity="1"
         transform="translate(34.903999,9.908)"
         id="g10">
        <path
           fill="#593313"
           fill-opacity="1"
           d="m 1.419,-0.245 c 0,0 -2.838,0.49 -2.838,0.49"
           id="path9" />
        <path
           stroke-linecap="butt"
           stroke-linejoin="miter"
           fill-opacity="0"
           stroke-miterlimit="10"
           stroke="#94784e"
           stroke-opacity="1"
           stroke-width="1"
           d="m 1.419,-0.245 c 0,0 -2.838,0.49 -2.838,0.49"
           id="path10" />
      </g>
      <g
         opacity="1"
         transform="translate(58.544998,57.57)"
         id="g11">
        <path
           stroke-linecap="round"
           stroke-linejoin="miter"
           fill-opacity="0"
           stroke-miterlimit="10"
           stroke="#607d8b"
           stroke-opacity="1"
           stroke-width="1.318"
           d="m 1.51,-3.01 c 0,0 -3.02,6.02 -3.02,6.02"
           id="path11" />
      </g>
    </g>
    <g
       transform="translate(-1.1660004,319.42297)"
       opacity="1"
       style="display:block"
       id="g15">
      <g
         opacity="1"
         transform="translate(42.597,88.758003)"
         id="g13">
        <path
           fill="#ff9800"
           fill-opacity="1"
           d="M 0.19400001,88.507004 C 9.8559999,82.623001 21.698999,74.594002 28.863001,65.831001 35.057999,58.256001 39.227001,49.486 41.43,40.091 37.903999,38.021 33.647999,29.809 33.193001,27.361 32.006001,20.981001 19.274,2.573 20.667,-3.773 23.002001,-14.391 31.816999,-34.992001 24.809,-41.576 14.277,-51.470001 6.1609998,-64.458 2.2509999,-78.361 2.7119999,-76.723999 -14.831,-85.565002 -15.142,-85.683998 -22.476,-88.507004 -30.252001,-77.764 -33.844002,-72.174004 -42.347,-58.937 -42.145,-42.042 -40.602001,-26.386 -37.249001,7.632 -28.698,41.646 -11.076,70.935997 -7.467,76.934998 -4.2950001,83.847 0.19400001,88.507004 Z"
           id="path12" />
      </g>
      <g
         opacity="1"
         transform="translate(24.565001,97.226997)"
         id="g14">
        <path
           fill="#f57c00"
           fill-opacity="1"
           d="M 21.743,74.095001 C 14.7,62.173 9.0179996,49.513 3.5320001,36.819 -2.5120001,22.834999 -8.2200003,8.7390003 -11.837,-6.098 c -1.858,-7.624 -3.011,-15.328001 -4.094,-23.090999 -1.104,-7.910999 -2.194999,-15.851002 -1.985,-23.860001 0.165001,-6.326 0.411001,-12.720997 0.86,-19.035999 0.185999,-2.618004 0.435,-5.306 0.885,-7.952004 -8.12,13.145005 -7.919,29.761002 -6.399,45.182003 3.353001,34.017 11.904,68.030999 29.5259999,97.321 C 10.565,68.464996 13.737,75.376999 18.226,80.037003 c 1.667,-1.015 3.41,-2.116005 5.172001,-3.251999 C 22.844999,75.889999 22.278999,75.001999 21.743,74.095001 Z"
           id="path13" />
      </g>
    </g>
    <g
       transform="matrix(1.07797,0,0,1,39.147804,404.66498)"
       opacity="1"
       style="display:block"
       id="g20">
      <g
         opacity="1"
         transform="translate(99.916,53.557999)"
         id="g16">
        <path
           fill="#7b1fa2"
           fill-opacity="1"
           d="M 97.750999,16.122999 C 80.505997,-6.9819999 63.582001,-30.339001 46.153999,-53.306999 27.084999,-47.549 8.3850002,-40.576 -9.8009996,-32.449001 -19,-28.337999 -50.907001,-12.225 -59.408001,-9.9519997 c -0.497997,0 -0.979,-0.1390003 -1.445999,-0.3640003 -0.819,3.5440002 -1.954998,7.0149999 -3.438,10.362 -5.519996,12.447 -15.097,22.687 -25.888,30.791 -3.053002,2.293001 -6.230004,4.42 -9.487,6.415998 8.078003,8.306 17.942002,13.904003 30.938004,14.796002 C -50.414001,53.306999 -31.837,46.577999 -17.164,35.868999 3.9170001,20.483 18.461,-2.033 32.518002,-24.023001 c 0.539997,1.859001 1.167999,3.692002 1.878997,5.492001 4.699002,11.8780001 13.025002,21.929 22.327999,30.517 7.203003,6.65 15.097001,12.531 23.259003,17.944 1.406998,0.932 3.103996,1.865 4.929001,2.834 C 90.613998,28.893999 95.848,24.257999 99.667,18.667 99.030998,17.825001 98.398003,16.99 97.750999,16.122999 Z"
           id="path15" />
      </g>
      <g
         opacity="1"
         transform="translate(221.741,92.098999)"
         id="g17">
        <path
           fill="#f5bd95"
           fill-opacity="1"
           d="M 35.926998,17.565001 C 25.372,13.406 9.7030001,8.0570002 -0.50199997,2.6689999 -11.589,-3.184 -14.923,-10.286 -22.160999,-19.870001 -25.979,-14.282 -31.212,-9.6470003 -36.911999,-5.7789998 -29.223,-1.696 -19.229,3.0539999 -18.798,11.382 c 0.102001,1.967 -0.24,4.126 0.874,5.75 1.399,2.040001 4.351,2.386999 6.824,2.301001 15.2479998,-0.968001 31.288999,0.437 46.462,-0.118 C 36.021999,19.291 36.911999,19.013 36.823002,18.358999 36.766998,17.944 36.318001,17.719 35.926998,17.565001 Z"
           id="path16" />
      </g>
      <g
         opacity="1"
         transform="translate(161.409,58.634998)"
         id="g18">
        <path
           fill="#6a1b99"
           fill-opacity="1"
           d="M 26.981001,23.306999 C 14.979,18.327 4.539,10.309 -4.526,1.096 -9.0310001,-3.4820001 -23.705,-16.41 -28.490999,-27.687 c 0.434,1.370001 0.866998,2.742 1.396,4.078001 C -22.396,-11.731 -14.071,-1.678 -4.7680001,6.9099998 2.4360001,13.559 10.33,19.440001 18.492001,24.853001 19.898001,25.785999 21.594999,26.718 23.42,27.687 c 1.753,-1.191 3.435,-2.481001 5.072001,-3.819999 -0.5,-0.196001 -1.014,-0.354001 -1.511,-0.560002 z"
           id="path17" />
      </g>
      <g
         opacity="1"
         transform="translate(96.349998,67.389)"
         id="g19">
        <path
           fill="#6a1b99"
           fill-opacity="1"
           d="M -12.879,6.6869998 C -21.298,10.256 -23.447001,17.542999 -31.860001,21.177999 c 0.241002,1.903 0.554001,3.793002 1.004,5.658001 0.358002,1.483 0.807001,2.994 1.403002,4.435 5.615,-2.539 10.955999,-5.656 15.854999,-9.232 C 0.71600002,11.592 21.68,-16.645 31.860001,-31.271 23.02,-21.761999 2.8940001,0 -12.879,6.6869998 Z"
           id="path18" />
      </g>
    </g>
    <g
       transform="translate(40.883995,464.97598)"
       opacity="1"
       style="display:block"
       id="g27">
      <g
         opacity="1"
         transform="translate(97.658997,68.831001)"
         id="g21">
        <path
           fill="#8e24aa"
           fill-opacity="1"
           d="M 90.596001,-35.259998 C 90.775002,-11.658 84.832001,11.519 77.366997,33.737 73.605003,44.931 69.404999,55.970001 65.211998,67.011002 c -0.195999,0.519996 -0.359001,1.047996 -0.544998,1.569999 -2.556999,-0.390999 -5.120999,-0.700004 -7.717999,-0.815002 -3.989002,-0.170998 -7.972,-0.024 -11.937,0.309997 -0.032,-0.887992 -0.065,-1.781997 -0.089,-2.669998 0,0 -0.009,0 0,-0.008 -0.009,-0.008 -0.009,-0.03301 0,-0.05 -0.009,-0.041 -0.008,-0.081 -0.008,-0.129998 -0.535999,-32.914999 19.345001,-78.708 19.645996,-79.409 0,0 -0.619995,0.636 -0.619995,0.636 0.170998,-0.244 0.325996,-0.439 0.447998,-0.546 0.074,-0.056 0.129997,-0.097 0.179001,-0.097 0,0 3.296997,-6.961 3.296997,-6.961 -90.138998,5.96 -146.207001,-15.428002 -158.639,-20.785 4.835998,-3.020001 11.023003,-7.318001 14.011002,-11.112 8.531997,-10.837002 17.161998,-15.525001 31.034,-14.751999 39.9,2.247002 81.07,7.961998 120.766003,12.577999 3.508995,0.408001 7.198997,0.887001 10.030998,3.003998 4.958,3.688004 5.479996,10.787003 5.528,16.966004 z"
           id="path20" />
      </g>
      <g
         opacity="1"
         transform="translate(144.914,175.444)"
         id="g22">
        <path
           fill="#f5bd95"
           fill-opacity="1"
           d="M 8.0419998,-6.0780001 C 10.859,-16.775 13.58,-27.663 17.385,-38.030998 c -2.544,-0.396 -5.105,-0.701 -7.6950004,-0.813004 -3.9839997,-0.171997 -7.9649996,-0.027 -11.9339996,0.312001 0,-0.01 0,-0.02 0,-0.029 0.1670001,4.997002 0.295,9.986 -0.056,14.924002 -0.2899999,4.092998 -1.937,8.282999 -5.2440001,10.710999 -3.0219999,2.22 -7.4139999,3.0850004 -8.9089989,6.524 -0.932001,2.1469999 -0.368,4.616 0.209,6.88500001 0.497999,0 3.625999,13.82299999 3.829999,15.16399999 0.792,5.201 0.76,10.701 1.156,15.954999 0.11,1.446001 0.24,2.961001 1.025,4.182001 1.6110003,2.509999 17.0080001,5.16 17.8440001,0.943001 C 7.9699998,34.910999 1.052,33.153999 0.43599999,31.409 -1.122,27 0.97000003,22.146999 2.0799999,17.605 4.013,9.6969995 5.9689999,1.794 8.0419998,-6.0780001 Z"
           id="path21" />
      </g>
      <g
         opacity="1"
         transform="translate(83.334999,42.007)"
         id="g23">
        <path
           fill="#7b1fa2"
           fill-opacity="1"
           d="m 83.084999,4.652 c -3.296997,6.961 -4.192001,7.974 -4.192001,7.974 C 53.091999,14.49 27.204,16.354 1.396,14.734 -13.706,13.79 -33.903999,12.927 -48.518002,8.9370003 -55.535999,7.0250001 -75.009003,3.369 -83.084999,-11.212 c 0,0 0.008,-0.008 0.008,-0.008 0.204002,-0.106 4.974006,-2.887 8.564003,-5.134 12.431999,5.357 67.4580002,26.966 157.597999,21.006 z"
           id="path22" />
      </g>
      <g
         opacity="1"
         transform="translate(152.12801,94.345001)"
         id="g24">
        <path
           fill="#7b1fa2"
           fill-opacity="1"
           d="M -9.5550003,39.703999 C -9.6929998,35.52 -9.7989998,31.344999 -9.6199999,27.184 -9.1309996,16.153 -7.9429998,4.9499998 -6.6160002,-5.9510002 -5.362,-16.282 2.2820001,-27.632 7.7950001,-36.188 c 0.2189998,-0.340999 1.0419998,-1.953998 1.6689996,-2.874 0,0 0.007,-0.007 0.007,-0.007 0,0 0.6200003,-0.634999 0.6200003,-0.634999 C 9.7889996,-39.004002 -10.092,6.79 -9.5550003,39.703999 Z"
           id="path23" />
      </g>
      <g
         opacity="1"
         transform="translate(147.12199,15.214)"
         id="g25">
        <path
           stroke-linecap="butt"
           stroke-linejoin="miter"
           fill-opacity="0"
           stroke-miterlimit="10"
           stroke="#b967c7"
           stroke-opacity="1"
           stroke-width="1"
           d="m -15.755,-1.761 c 0,0 31.51,3.522 31.51,3.522"
           id="path24" />
      </g>
      <g
         opacity="1"
         transform="translate(172.653,18.443001)"
         id="g26">
        <path
           stroke-linecap="butt"
           stroke-linejoin="miter"
           fill-opacity="0"
           stroke-miterlimit="10"
           stroke="#b967c7"
           stroke-opacity="1"
           stroke-width="1"
           d="m -2.9349999,-0.391 c 0,0 5.8699998,0.782 5.8699998,0.782"
           id="path25" />
      </g>
    </g>
    <g
       transform="rotate(0.08170022,-236887.72,9600.6636)"
       opacity="1"
       style="display:block"
       id="g31">
      <g
         opacity="1"
         transform="translate(77.389,55.257)"
         id="g28">
        <path
           fill="#f5bd95"
           fill-opacity="1"
           d="M -56.209999,-46.967999 C -38.151001,-20.959 -22.017,7.7399998 -3.9579999,33.748001 7.381,26.242001 44.757999,1.35 59.709999,4.618 67.487999,6.3169999 69.411003,7.7090001 77.139,9.6660004 68.550003,13.432 65.244003,13.571 55.865002,13.574 35.884998,13.58 17.927,39.247002 9.6300001,45.868999 5.8210001,48.909 1.821,52.042 -2.95,53.037998 -12.37,55.006001 -21.238001,48.183998 -27.917999,41.257999 -42.783001,25.844999 -55.507,6.9359999 -65.338997,-12.075 c -5.293007,-10.236001 -7.642006,-17.804999 -9.480003,-28.378999 -2.32,-13.34 13.027,-14.553001 18.609001,-6.514 z"
           id="path27" />
      </g>
      <g
         opacity="1"
         transform="translate(52.709999,67.367996)"
         id="g29">
        <path
           stroke-linecap="butt"
           stroke-linejoin="miter"
           fill-opacity="0"
           stroke-miterlimit="10"
           stroke="#eceff1"
           stroke-opacity="1"
           stroke-width="1"
           d="m -7.5650001,-11.416 c 0,0 15.1300002,22.832 15.1300002,22.832"
           id="path28" />
      </g>
      <g
         opacity="1"
         transform="translate(63.471001,83.349998)"
         id="g30">
        <path
           stroke-linecap="butt"
           stroke-linejoin="miter"
           fill-opacity="0"
           stroke-miterlimit="10"
           stroke="#eceff1"
           stroke-opacity="1"
           stroke-width="1"
           d="m -1.109,-1.696 c 0,0 2.218,3.392 2.218,3.392"
           id="path29" />
      </g>
    </g>
    <g
       transform="translate(112.547,326.793)"
       opacity="1"
       style="display:block"
       id="g33">
      <g
         opacity="1"
         transform="translate(50.686001,55.102001)"
         id="g32">
        <path
           stroke-linecap="butt"
           stroke-linejoin="miter"
           fill-opacity="0"
           stroke-miterlimit="10"
           stroke="#788f9c"
           stroke-opacity="1"
           stroke-width="5.699"
           d="m 36.438999,-40.854 c 0,0 -16.523998,61.704 -16.523998,61.704 0,0 -56.354,20.004 -56.354,20.004"
           id="path31" />
      </g>
    </g>
  </g>
  <text
     xml:space="preserve"
     style="font-size:64px;line-height:0.1;letter-spacing:0.25px;word-spacing:25px;fill:currentColor;fill-opacity:1;stroke:#744420;stroke-width:5.66929;stroke-linecap:round;stroke-linejoin:round"
     x="399.80319"
     y="67.749077"
     id="text15"><tspan
       sodipodi:role="line"
       id="tspan15"
       x="399.80319"
       y="67.749077"
       style="font-style:normal;font-variant:normal;font-weight:normal;font-stretch:normal;font-size:64px;line-height:0.1;font-family:Consolas;-inkscape-font-specification:Consolas;letter-spacing:0.25px;word-spacing:25px;fill:currentColor;fill-opacity:1;fill-rule:evenodd;stroke:none;stroke-opacity:1"
       dx="0">erinnmclaughlin.com</tspan></text>
</svg>
